Coordinates
version=1
nRows=11
nColumns=63
inDegrees=yes

Units are S.I. units (second, meters, Newtons, ...)
If the header above contains a line with 'inDegrees', this indicates whether rotational values are in degrees (yes) or radians (no).

endheader
time	pelvis_tilt	pelvis_list	pelvis_rotation	pelvis_tx	pelvis_ty	pelvis_tz	hip_flexion_r	hip_adduction_r	hip_rotation_r	knee_angle_r	knee_angle_r_beta	ankle_angle_r	subtalar_angle_r	mtp_angle_r	hip_flexion_l	hip_adduction_l	hip_rotation_l	knee_angle_l	knee_angle_l_beta	ankle_angle_l	subtalar_angle_l	mtp_angle_l	L5_S1_Flex_Ext	L5_S1_Lat_Bending	L5_S1_axial_rotation	L4_L5_Flex_Ext	L4_L5_Lat_Bending	L4_L5_axial_rotation	L3_L4_Flex_Ext	L3_L4_Lat_Bending	L3_L4_axial_rotation	L2_L3_Flex_Ext	L2_L3_Lat_Bending	L2_L3_axial_rotation	L1_L2_Flex_Ext	L1_L2_Lat_Bending	L1_L2_axial_rotation	L1_T12_Flex_Ext	L1_T12_Lat_Bending	L1_T12_axial_rotation	Abs_r3	Abs_r2	Abs_r1	Abs_t1	Abs_t2	neck_flexion	neck_bending	neck_rotation	arm_flex_r	arm_add_r	arm_rot_r	elbow_flex_r	pro_sup_r	wrist_flex_r	wrist_dev_r	arm_flex_l	arm_add_l	arm_rot_l	elbow_flex_l	pro_sup_l	wrist_flex_l	wrist_dev_l
5.372881	2.451899	0.922283	91.533099	0.129364	0.484911	0.879052	-5.395569	2.964802	11.856035	0.514843	0.008986	21.268823	-7.243164	0.000000	-0.535962	-3.823912	-9.116823	9.640182	0.168253	29.669681	-0.878383	0.000000	0.139450	0.907900	-0.566562	0.258973	1.207507	-0.601972	0.229102	2.207469	-0.601972	0.159377	2.207469	-0.495742	0.129493	1.851390	-0.460332	0.079682	1.406337	-0.424922	0.996078	10.270349	-3.151049	0.000000	0.000000	26.725372	-2.041169	1.977668	17.742531	-2.562903	80.553315	37.564736	58.695462	-3.624109	5.682405	19.522699	-3.745826	71.971854	38.503476	40.640919	-3.315445	3.286606
5.389831	2.331504	0.951812	91.327556	0.130499	0.485274	0.879020	-5.414537	2.864078	12.176477	0.499878	0.008725	21.190136	-7.312791	0.000000	-0.492214	-3.735595	-9.083727	9.889546	0.172605	29.321011	-1.671225	0.000000	0.141728	0.920452	-0.428423	0.263203	1.224201	-0.455200	0.232845	2.237987	-0.455200	0.161981	2.237987	-0.374870	0.131609	1.876985	-0.348094	0.080983	1.425780	-0.321317	1.012350	10.412335	-2.382762	0.000000	0.000000	26.675570	-2.651165	1.181051	16.940758	-2.904923	78.204418	37.753192	65.216781	-3.928444	5.532588	18.626197	-3.137634	69.520057	38.043443	43.347529	-3.319809	3.399452
5.406780	2.208912	0.997458	91.108423	0.131581	0.485725	0.879079	-5.446688	2.754922	12.505853	0.488508	0.008526	21.111275	-7.360652	0.000000	-0.463765	-3.637087	-9.053877	10.122829	0.176677	28.930138	-2.468883	0.000000	0.139675	0.933988	-0.288678	0.259390	1.242204	-0.306720	0.229471	2.270899	-0.306720	0.159634	2.270899	-0.252593	0.129702	1.904589	-0.234551	0.079810	1.446748	-0.216509	0.997681	10.565461	-1.605540	0.000000	0.000000	26.586168	-3.148505	0.403371	16.267896	-3.243296	76.233973	37.926759	71.371901	-4.248386	5.317556	17.781052	-2.475320	67.100757	37.488321	46.051358	-3.200963	3.583037
5.423729	2.069689	1.068632	90.898625	0.132665	0.486249	0.879240	-5.502495	2.632034	12.837009	0.485595	0.008475	21.029731	-7.436689	0.000000	-0.459603	-3.527279	-9.066091	10.336495	0.180406	28.536220	-3.139599	0.000000	0.132701	0.943774	-0.144473	0.246439	1.255219	-0.153502	0.218015	2.294692	-0.153502	0.151664	2.294692	-0.126414	0.123226	1.924544	-0.117384	0.075825	1.461906	-0.108355	0.947872	10.676158	-0.803515	0.000000	0.000000	26.378212	-3.477286	-0.507227	15.713605	-3.549900	74.573578	38.086309	76.965984	-4.443561	5.031209	17.060353	-1.782779	64.922983	36.816307	48.793874	-2.796275	3.880179
5.440678	1.903286	1.142679	90.763902	0.133735	0.486782	0.879560	-5.559996	2.493694	13.105216	0.486639	0.008493	20.948035	-7.552624	0.000000	-0.406181	-3.409908	-9.086004	10.606221	0.185113	28.187991	-3.653294	0.000000	0.122923	0.948071	-0.006482	0.228280	1.260934	-0.006887	0.201950	2.305139	-0.006887	0.140489	2.305139	-0.005672	0.114146	1.933305	-0.005267	0.070238	1.468561	-0.004862	0.878026	10.724764	-0.036052	0.000000	0.000000	26.086534	-3.669070	-1.478569	15.199013	-3.833106	72.877160	38.237300	81.678691	-4.544836	4.883359	16.470539	-1.116792	63.072875	36.152378	51.697384	-2.388296	4.102355
5.457627	1.712134	1.223774	90.690940	0.134833	0.487310	0.880039	-5.623708	2.344591	13.328310	0.494866	0.008637	20.859818	-7.736372	0.000000	-0.327317	-3.288037	-9.142295	10.895837	0.190168	27.895453	-3.961324	0.000000	0.109264	0.946562	0.125371	0.202914	1.258928	0.133207	0.179510	2.301471	0.133207	0.124878	2.301471	0.109700	0.101462	1.930229	0.101864	0.062433	1.466225	0.094028	0.780461	10.707699	0.697276	0.000000	0.000000	25.684785	-3.680117	-2.445241	14.777633	-4.073907	71.311994	38.384918	85.406383	-4.514733	4.805889	16.022176	-0.489805	61.581586	35.486963	54.660106	-1.851843	4.329027
5.474576	1.496585	1.307526	90.685678	0.135958	0.487802	0.880684	-5.689692	2.185805	13.542398	0.513585	0.008964	20.743562	-8.052239	0.000000	-0.222660	-3.164595	-9.269777	11.192799	0.195351	27.678425	-4.012153	0.000000	0.091312	0.938737	0.249915	0.169576	1.248521	0.265534	0.150017	2.282446	0.265534	0.104361	2.282446	0.218675	0.084793	1.914273	0.203056	0.052176	1.454104	0.187436	0.652236	10.619186	1.389951	0.000000	0.000000	25.186145	-3.511690	-3.402053	14.463149	-4.250717	69.912809	38.534179	88.062624	-4.303623	4.821376	15.752180	0.080106	60.561033	34.842626	57.493714	-1.122894	4.558853
5.491525	1.258660	1.376257	90.736463	0.137137	0.488210	0.881483	-5.741116	2.020218	13.681107	0.542656	0.009471	20.594226	-8.433629	0.000000	-0.066469	-3.031520	-9.374639	11.513227	0.200944	27.539066	-3.951173	0.000000	0.071804	0.924764	0.371302	0.133347	1.229936	0.394508	0.117967	2.248471	0.394508	0.082065	2.248471	0.324889	0.066677	1.885779	0.301683	0.041029	1.432459	0.278476	0.512888	10.461115	2.065068	0.000000	0.000000	24.596468	-3.283125	-4.360155	14.171767	-4.408208	68.472997	38.757974	89.036070	-4.090313	5.003958	15.663776	0.568953	60.030502	34.273693	60.169301	-0.321978	4.784132
5.508475	1.004532	1.436719	90.830441	0.138376	0.488515	0.882417	-5.780212	1.853494	13.798467	0.593347	0.010356	20.429706	-8.915063	0.000000	0.125704	-2.906011	-9.553239	11.850972	0.206838	27.496894	-3.659780	0.000000	0.050152	0.905442	0.485985	0.093137	1.204238	0.516359	0.082394	2.201492	0.516359	0.057318	2.201492	0.425237	0.046571	1.846377	0.394863	0.028657	1.402530	0.364489	0.358229	10.242541	2.702901	0.000000	0.000000	23.929920	-3.028355	-5.277469	13.941340	-4.527505	67.135292	39.027865	88.687204	-3.780586	5.210241	15.752585	0.956147	59.990482	33.800843	62.445899	0.561918	4.954145
5.525424	0.742510	1.483325	90.976533	0.139636	0.488694	0.883458	-5.800039	1.691917	13.776528	0.666809	0.011638	20.277121	-9.338943	0.000000	0.355220	-2.779747	-9.690340	12.196303	0.212866	27.523117	-3.298847	0.000000	0.028211	0.880692	0.597550	0.052391	1.171320	0.634897	0.046348	2.141314	0.634897	0.032243	2.141314	0.522856	0.026197	1.795907	0.485510	0.016120	1.364192	0.448163	0.201511	9.962563	3.323395	0.000000	0.000000	23.228248	-2.800103	-6.284531	13.658356	-4.651988	65.516461	39.359544	87.901761	-3.442520	5.546827	15.990885	1.260961	60.319071	33.412601	64.453674	1.514040	5.157391
5.542373	0.475703	1.524677	91.186999	0.140899	0.488750	0.884628	-5.803867	1.542536	13.641549	0.763589	0.013327	20.136156	-9.771223	0.000000	0.620857	-2.659339	-9.802665	12.562208	0.219252	27.620222	-2.828292	0.000000	0.005795	0.851109	0.699075	0.010762	1.131975	0.742767	0.009521	2.069386	0.742767	0.006623	2.069386	0.611690	0.005381	1.735581	0.567998	0.003311	1.318367	0.524306	0.041393	9.627911	3.888044	0.000000	0.000000	22.504348	-2.589072	-7.324023	13.390828	-4.764723	63.996314	39.760579	85.468060	-3.156062	5.914438	16.379322	1.483183	61.065784	33.102057	65.927933	2.460863	5.296769
